<?xml version="1.0" encoding="utf-8"?>
<!-- Generator: Adobe Illustrator 20.0.0, SVG Export Plug-In . SVG Version: 6.00 Build 0)  -->
<svg version="1.1" id="Calque_1" xmlns="http://www.w3.org/2000/svg" xmlns:xlink="http://www.w3.org/1999/xlink" x="0px" y="0px"
	 width="150.1px" height="86.6px" viewBox="0 0 150.1 86.6" style="enable-background:new 0 0 150.1 86.6;" xml:space="preserve">
<style type="text/css">
	.st0{fill:#FFFFFF;}
	.st1{fill:none;stroke:#F0A14D;stroke-width:3.039;stroke-linecap:round;}
	.st2{fill:#EE9739;}
	.st3{fill:#B1DAEA;}
	.st4{fill:none;stroke:#0095AB;stroke-width:3.039;stroke-linecap:round;}
	.st5{fill:#0095AB;}
	.st6{fill:none;stroke:#EE9739;stroke-width:0.643;}
	.st7{fill:none;stroke:#0095AB;stroke-width:0.768;}
	.st8{fill:#EA832A;}
</style>
<g>
	<path class="st0" d="M118.1,28.6c0,0,7.2-1.1,10.6-6.1c0,0,2.7-3.6,0.1-8.2c0,0-1.9-3.3-6.8-4.1c0,0-3.9-1.1-8-0.3
		c0,0-3.6,0.9-4.5,3.5c0,0-1.4,3.5,0.1,10.2C109.9,24.7,110.6,30.1,118.1,28.6"/>
</g>
<path class="st1" d="M106.6,26l15.2-2.7 M105.3,15.3l10.1-1.6"/>
<path class="st1" d="M122.5,17.7l12.2-1.9 M125.4,22.5l7.6-1.1 M118.9,13l12-1.9"/>
<g>
	<path class="st2" d="M130,23.4c-3.9,5.7-12.2,7-12.2,7c-8.6,1.7-9.4-4.5-9.7-5.7C106.3,17,108,13,108,13c1.1-3,5.2-4,5.2-4
		c4.7-0.9,9.1,0.4,9.1,0.4c5.6,0.8,7.8,4.7,7.8,4.7C133.1,19.3,130,23.4,130,23.4 M139.3,10.4c0,0-3.9-6.8-13.8-8.3
		c0,0-7.8-2.3-16.1-0.6c0,0-7.2,1.9-9.1,7.1c0,0-2.9,7.2,0.2,20.6c0.5,2.1,2,13.2,17.2,10.1c0,0,14.6-2.3,21.5-12.3
		C139.1,26.9,144.6,19.7,139.3,10.4"/>
	<path class="st3" d="M128.4,22.4c-3.3,4.7-10.2,5.8-10.2,5.8c-7.2,1.5-7.9-3.8-8.2-4.8c-1.5-6.4-0.1-9.8-0.1-9.8
		c0.9-2.5,4.3-3.4,4.3-3.4c4-0.8,7.7,0.3,7.7,0.3c4.7,0.7,6.6,3.9,6.6,3.9C131,19,128.4,22.4,128.4,22.4 M130.2,14
		c0,0-2.2-3.9-7.9-4.7c0,0-4.5-1.3-9.2-0.4c0,0-4.1,1.1-5.2,4c0,0-1.7,4.1,0.1,11.8c0.3,1.2,1.2,7.5,9.8,5.8c0,0,8.3-1.3,12.3-7
		C130.1,23.4,133.3,19.3,130.2,14"/>
</g>
<line class="st4" x1="107.7" y1="20.7" x2="115.3" y2="19.4"/>
<g>
	<path class="st5" d="M137.2,59c0,0-8.3-0.8-12.6-6.4c0,0-3.4-4.1-0.8-9.9c0,0,1.9-4.2,7.4-5.5c0,0,4.3-1.7,9-1.1
		c0,0,4.1,0.8,5.4,3.8c0,0,1.9,4.2,0.7,12.3C146.3,53.5,145.8,60.2,137.2,59"/>
	<path class="st3" d="M136.8,53.7c0,0-4.7-0.4-7.1-3.6c0,0-1.9-2.3-0.4-5.6c0,0,1.1-2.4,4.2-3.1c0,0,2.4-1,5.1-0.6
		c0,0,2.3,0.5,3.1,2.2c0,0,1.1,2.4,0.4,7C141.9,50.6,141.6,54.4,136.8,53.7"/>
	<path class="st0" d="M136.9,52.2c0,0-3.7-0.3-5.7-2.9c0,0-1.5-1.8-0.3-4.5c0,0,0.9-1.9,3.4-2.5c0,0,1.9-0.8,4.1-0.5
		c0,0,1.9,0.4,2.4,1.7c0,0,0.9,1.9,0.3,5.6C141,49.7,140.8,52.7,136.9,52.2"/>
	<path class="st0" d="M130.9,32c0,0-4.2,0.8-6.1,3.7c0,0-1.5,2.1,0.1,4.8c0,0,1.2,1.9,4,2.3c0,0,2.3,0.6,4.7,0.1
		c0,0,2.1-0.6,2.6-2.1c0,0,0.8-2.1-0.2-5.9C135.7,34.2,135.2,31,130.9,32"/>
	<path class="st6" d="M130.9,32c0,0-4.2,0.8-6.1,3.7c0,0-1.5,2.1,0.1,4.8c0,0,1.2,1.9,4,2.3c0,0,2.3,0.6,4.7,0.1
		c0,0,2.1-0.6,2.6-2.1c0,0,0.8-2.1-0.2-5.9C135.7,34.2,135.2,31,130.9,32z"/>
	<path class="st3" d="M130.9,34.5c0,0-2.4,0.4-3.5,2.1c0,0-0.9,1.2,0,2.7c0,0,0.7,1.1,2.3,1.3c0,0,1.3,0.3,2.7,0
		c0,0,1.2-0.3,1.5-1.2c0,0,0.5-1.2-0.1-3.4C133.7,35.8,133.4,34,130.9,34.5"/>
	<path class="st5" d="M131,35.3c0,0-1.9,0.4-2.8,1.7c0,0-0.7,1,0,2.2c0,0,0.5,0.9,1.8,1.1c0,0,1,0.3,2.1,0c0,0,0.9-0.3,1.2-1
		c0,0,0.4-1-0.1-2.7C133.2,36.3,133,34.8,131,35.3"/>
	<path class="st0" d="M118,32.6c0,0-6.9,1.3-10.2,6.1c0,0-2.5,3.5,0.1,7.9c0,0,1.9,3.2,6.7,3.8c0,0,3.8,1,7.7,0.1c0,0,3.4-1,4.3-3.5
		c0,0,1.3-3.5-0.3-9.8C126,36.3,125.2,31,118,32.6"/>
	<path class="st7" d="M118,32.6c0,0-6.9,1.3-10.2,6.1c0,0-2.5,3.5,0.1,7.9c0,0,1.9,3.2,6.7,3.8c0,0,3.8,1,7.7,0.1c0,0,3.4-1,4.3-3.5
		c0,0,1.3-3.5-0.3-9.8C126,36.3,125.2,31,118,32.6z"/>
	<path class="st3" d="M118,36.9c0,0-3.9,0.7-5.8,3.5c0,0-1.4,2,0.1,4.5c0,0,1.1,1.8,3.8,2.2c0,0,2.1,0.6,4.4,0.1c0,0,2-0.5,2.4-2
		c0,0,0.8-2-0.2-5.6C122.5,38.9,122,35.9,118,36.9"/>
	<path class="st5" d="M118.1,38.1c0,0-3.1,0.6-4.6,2.8c0,0-1.2,1.6,0,3.6c0,0,0.9,1.4,3,1.7c0,0,1.7,0.5,3.5,0.1
		c0,0,1.6-0.4,1.9-1.6c0,0,0.6-1.6-0.1-4.5C121.8,39.7,121.4,37.3,118.1,38.1"/>
	<path class="st5" d="M101.2,22.7v27.6h-4.6V32.7l-8.4,17.5H83l-8.3-17.4v17.4h-4.6V22.7h4.8l10.7,22.5l10.8-22.5H101.2z M58.8,50.5
		c2.1,0,4.1-0.4,6.1-1.1l1.4-0.5V34.3h-9.5v4.2h4.9V46c-0.9,0.2-1.9,0.3-2.8,0.3c-3,0-5.6-1-7.7-2.9c-2.1-1.9-3.2-4.3-3.2-7
		c0-2.7,1.1-5.1,3.2-7c2.1-1.9,4.7-2.9,7.7-2.9c1.5,0,2.9,0.3,4.2,0.8l1.8-3.9c-1.9-0.7-3.9-1.1-6-1.1c-4.3,0-7.9,1.4-10.9,4.1
		c-3,2.8-4.5,6.1-4.5,10c0,3.9,1.5,7.2,4.5,10C50.9,49.2,54.5,50.5,58.8,50.5 M40.9,22.7v4.2H30v7.5h8.4v4.2H30v11.7h-4.6V22.7H40.9
		z M11.6,50.5c2.7,0,5-0.7,6.9-2.1c2.1-1.5,3.2-3.4,3.3-5.6c0.1-1.6-0.4-3-1.5-4.3c-1.6-1.9-4.2-3.3-7.9-4.2
		c-4.1-1.1-6.2-2.4-6.1-4.2c0.1-1.5,0.9-2.6,2.4-3.2c1-0.4,2.2-0.5,3.5-0.5c2,0.1,3.5,0.7,4.6,1.7l3.4-2.9c-2-1.9-4.5-2.9-7.8-3.1
		c-2.7-0.1-4.9,0.4-6.8,1.4c-2.5,1.4-3.8,3.5-3.9,6.2c-0.2,4,2.9,6.8,9.4,8.4c4.1,1.1,6.2,2.5,6.1,4.2c-0.1,0.9-0.6,1.7-1.5,2.5
		c-1.2,0.8-2.6,1.2-4.4,1.2C10.1,46.3,9,46,8,45.6c-1.1-0.5-1.8-1.2-2.2-2.1L1.5,45c0.7,1.7,2,3.1,3.9,4.1C7.1,50,9,50.4,11,50.5
		C11.2,50.5,11.4,50.5,11.6,50.5"/>
	<path class="st8" d="M98.6,81c0-0.4,0.1-0.6,0.3-0.8c0.2-0.2,0.4-0.3,0.7-0.3c0.3,0,0.5,0.1,0.7,0.3c0.2,0.2,0.3,0.5,0.3,0.8H98.6z
		 M100.2,82.8c-0.1,0.1-0.3,0.2-0.5,0.2c-0.3,0-0.5-0.1-0.7-0.3c-0.2-0.2-0.3-0.5-0.3-0.9h3.2c0-1-0.2-1.7-0.6-2.2
		c-0.4-0.5-1-0.7-1.7-0.7c-0.6,0-1.2,0.2-1.6,0.7c-0.4,0.5-0.6,1.1-0.6,1.9c0,0.7,0.2,1.2,0.5,1.7c0.4,0.6,1,0.8,1.9,0.8
		c0.5,0,1-0.1,1.3-0.4c0.4-0.2,0.6-0.6,0.8-1.1l-1.3-0.2C100.4,82.5,100.3,82.7,100.2,82.8 M95.2,82.3c0-0.8,0-1.4,0.1-1.6
		c0.1-0.3,0.2-0.4,0.3-0.5s0.3-0.1,0.5-0.1c0.2,0,0.4,0.1,0.6,0.2l0.4-1.1c-0.3-0.2-0.6-0.2-0.8-0.2c-0.2,0-0.4,0.1-0.6,0.2
		c-0.2,0.1-0.3,0.3-0.6,0.6V79H94v4.8h1.3V82.3z M92.7,79h-1.3v4.8h1.3V79z M92.7,77.1h-1.3v1.2h1.3V77.1z M88.9,81.8
		c0,0.3,0,0.5-0.1,0.6c0,0.2-0.2,0.3-0.3,0.4C88.3,83,88.1,83,87.9,83c-0.2,0-0.4-0.1-0.5-0.2c-0.1-0.1-0.2-0.3-0.2-0.5
		c0-0.2,0.1-0.3,0.3-0.5c0.1-0.1,0.3-0.1,0.7-0.2c0.4-0.1,0.6-0.1,0.8-0.2V81.8z M87.5,80c0.1-0.1,0.3-0.1,0.5-0.1
		c0.3,0,0.6,0.1,0.7,0.2c0.1,0.1,0.2,0.3,0.2,0.5v0.1c-0.2,0.1-0.6,0.2-1.2,0.3c-0.4,0.1-0.8,0.2-1,0.3c-0.2,0.1-0.4,0.3-0.6,0.5
		c-0.1,0.2-0.2,0.5-0.2,0.7c0,0.4,0.1,0.8,0.4,1c0.3,0.3,0.7,0.4,1.2,0.4c0.3,0,0.5-0.1,0.8-0.2c0.2-0.1,0.5-0.3,0.7-0.5
		c0,0,0,0.1,0,0.2c0,0.2,0.1,0.3,0.1,0.4h1.3c-0.1-0.2-0.2-0.4-0.2-0.7c0-0.2-0.1-0.5-0.1-0.9l0-1.5c0-0.6-0.1-0.9-0.2-1.1
		c-0.1-0.2-0.3-0.4-0.6-0.5c-0.3-0.1-0.7-0.2-1.3-0.2c-0.6,0-1.1,0.1-1.4,0.3c-0.3,0.2-0.5,0.6-0.7,1l1.2,0.2
		C87.3,80.2,87.4,80.1,87.5,80 M84.9,77.1h-1.3v6.7h1.3V77.1z M82.3,83.8V79H81v2c0,0.7,0,1.1-0.1,1.3c-0.1,0.2-0.2,0.3-0.4,0.4
		C80.4,82.9,80.2,83,80,83c-0.2,0-0.3,0-0.5-0.1c-0.1-0.1-0.2-0.2-0.3-0.4c0-0.2-0.1-0.6-0.1-1.3V79h-1.3v3.1c0,0.5,0.1,0.8,0.2,1.1
		c0.1,0.3,0.3,0.5,0.6,0.6c0.3,0.1,0.6,0.2,0.9,0.2c0.3,0,0.6-0.1,0.9-0.2c0.3-0.1,0.5-0.4,0.7-0.6v0.7H82.3z M76.6,77.1h-1.3v6.7
		h1.3V77.1z M74,77.1h-1.3v6.7H74V77.1z M68.5,81c0-0.4,0.1-0.6,0.3-0.8s0.4-0.3,0.7-0.3c0.3,0,0.5,0.1,0.7,0.3
		c0.2,0.2,0.3,0.5,0.3,0.8H68.5z M70,82.8c-0.1,0.1-0.3,0.2-0.5,0.2c-0.3,0-0.5-0.1-0.7-0.3c-0.2-0.2-0.3-0.5-0.3-0.9h3.2
		c0-1-0.2-1.7-0.6-2.2c-0.4-0.5-1-0.7-1.7-0.7c-0.6,0-1.2,0.2-1.6,0.7c-0.4,0.5-0.6,1.1-0.6,1.9c0,0.7,0.2,1.2,0.5,1.7
		c0.4,0.6,1,0.8,1.9,0.8c0.5,0,1-0.1,1.3-0.4c0.4-0.2,0.6-0.6,0.8-1.1l-1.3-0.2C70.2,82.5,70.1,82.7,70,82.8 M64.5,82.5
		c-0.3,0.2-0.6,0.3-0.9,0.3c-0.5,0-0.9-0.2-1.2-0.5c-0.3-0.4-0.5-1-0.5-1.8c0-0.8,0.2-1.4,0.5-1.7c0.3-0.4,0.7-0.5,1.2-0.5
		c0.4,0,0.7,0.1,0.9,0.3c0.3,0.2,0.4,0.5,0.5,0.8l1.3-0.3c-0.2-0.5-0.4-0.9-0.7-1.2c-0.5-0.5-1.2-0.7-2-0.7c-0.9,0-1.7,0.3-2.3,0.9
		c-0.6,0.6-0.9,1.5-0.9,2.6c0,1.1,0.3,1.9,0.9,2.5s1.3,0.9,2.2,0.9c0.7,0,1.3-0.2,1.8-0.5c0.5-0.4,0.8-0.9,1-1.6L65,81.4
		C64.9,81.9,64.8,82.2,64.5,82.5 M55,81c0-0.4,0.1-0.6,0.3-0.8c0.2-0.2,0.4-0.3,0.7-0.3c0.3,0,0.5,0.1,0.7,0.3
		c0.2,0.2,0.3,0.5,0.3,0.8H55z M56.5,82.8C56.4,82.9,56.2,83,56,83c-0.3,0-0.5-0.1-0.7-0.3c-0.2-0.2-0.3-0.5-0.3-0.9h3.2
		c0-1-0.2-1.7-0.6-2.2c-0.4-0.5-1-0.7-1.7-0.7c-0.6,0-1.2,0.2-1.6,0.7c-0.4,0.5-0.6,1.1-0.6,1.9c0,0.7,0.2,1.2,0.5,1.7
		c0.4,0.6,1,0.8,1.9,0.8c0.5,0,1-0.1,1.3-0.4c0.4-0.2,0.6-0.6,0.8-1.1l-1.3-0.2C56.7,82.5,56.6,82.7,56.5,82.8 M52.7,79h-1.3v4.8
		h1.3V79z M52.7,77.1h-1.3v1.2h1.3V77.1z M47.2,80.3c0.2-0.2,0.5-0.4,0.8-0.4c0.3,0,0.6,0.1,0.8,0.4c0.2,0.2,0.3,0.6,0.3,1.1
		c0,0.5-0.1,0.9-0.3,1.2s-0.4,0.4-0.7,0.4c-0.3,0-0.6-0.1-0.8-0.4c-0.2-0.3-0.3-0.7-0.3-1.2C46.9,80.9,47,80.5,47.2,80.3 M45.7,85.7
		h1.3v-2.4c0.2,0.3,0.5,0.4,0.7,0.5c0.2,0.1,0.5,0.2,0.7,0.2c0.6,0,1-0.2,1.4-0.7c0.4-0.4,0.6-1.1,0.6-1.9c0-0.8-0.2-1.4-0.6-1.8
		c-0.4-0.4-0.9-0.7-1.4-0.7c-0.3,0-0.6,0.1-0.9,0.2s-0.5,0.3-0.6,0.6V79h-1.2V85.7z M43.2,81.8c0,0.3,0,0.5-0.1,0.6
		c0,0.2-0.2,0.3-0.3,0.4C42.6,83,42.4,83,42.2,83c-0.2,0-0.4-0.1-0.5-0.2c-0.1-0.1-0.2-0.3-0.2-0.5c0-0.2,0.1-0.3,0.3-0.5
		c0.1-0.1,0.3-0.1,0.7-0.2c0.4-0.1,0.6-0.1,0.8-0.2V81.8z M41.8,80c0.1-0.1,0.3-0.1,0.5-0.1c0.3,0,0.6,0.1,0.7,0.2
		c0.1,0.1,0.2,0.3,0.2,0.5v0.1c-0.2,0.1-0.6,0.2-1.2,0.3c-0.4,0.1-0.8,0.2-1,0.3c-0.2,0.1-0.4,0.3-0.5,0.5c-0.1,0.2-0.2,0.5-0.2,0.7
		c0,0.4,0.1,0.8,0.4,1c0.3,0.3,0.7,0.4,1.2,0.4c0.3,0,0.5-0.1,0.8-0.2c0.2-0.1,0.5-0.3,0.7-0.5c0,0,0,0.1,0,0.2
		c0,0.2,0.1,0.3,0.1,0.4h1.3c-0.1-0.2-0.2-0.4-0.2-0.7c0-0.2-0.1-0.5-0.1-0.9l0-1.5c0-0.6-0.1-0.9-0.2-1.1c-0.1-0.2-0.3-0.4-0.6-0.5
		c-0.3-0.1-0.7-0.2-1.3-0.2c-0.6,0-1.1,0.1-1.4,0.3c-0.3,0.2-0.5,0.6-0.7,1l1.2,0.2C41.5,80.2,41.6,80.1,41.8,80 M38.1,82.3
		c0-0.8,0-1.4,0.1-1.6c0.1-0.3,0.2-0.4,0.3-0.5s0.3-0.1,0.5-0.1c0.2,0,0.4,0.1,0.6,0.2l0.4-1.1c-0.3-0.2-0.6-0.2-0.8-0.2
		c-0.2,0-0.4,0.1-0.6,0.2c-0.2,0.1-0.3,0.3-0.5,0.6V79h-1.2v4.8h1.3V82.3z M33.7,78.4L35,77h-1.4l-0.6,1.4H33.7z M32.6,81
		c0-0.4,0.1-0.6,0.3-0.8c0.2-0.2,0.4-0.3,0.7-0.3c0.3,0,0.5,0.1,0.7,0.3c0.2,0.2,0.3,0.5,0.3,0.8H32.6z M34.2,82.8
		C34,82.9,33.8,83,33.6,83c-0.3,0-0.5-0.1-0.7-0.3c-0.2-0.2-0.3-0.5-0.3-0.9h3.2c0-1-0.2-1.7-0.6-2.2c-0.4-0.5-1-0.7-1.7-0.7
		c-0.6,0-1.2,0.2-1.6,0.7c-0.4,0.5-0.6,1.1-0.6,1.9c0,0.7,0.2,1.2,0.5,1.7c0.4,0.6,1,0.8,1.9,0.8c0.5,0,1-0.1,1.3-0.4
		c0.4-0.2,0.6-0.6,0.8-1.1l-1.3-0.2C34.4,82.5,34.3,82.7,34.2,82.8 M25.9,77.1v6.7h1.3v-2.4c0-0.4,0-0.7,0.1-0.9
		c0.1-0.2,0.2-0.4,0.4-0.5c0.2-0.1,0.4-0.2,0.6-0.2c0.2,0,0.3,0,0.5,0.1c0.1,0.1,0.2,0.2,0.3,0.3s0.1,0.5,0.1,1v2.6h1.3V81
		c0-0.4,0-0.8-0.1-1s-0.1-0.4-0.2-0.6c-0.1-0.2-0.3-0.3-0.5-0.4c-0.2-0.1-0.5-0.2-0.8-0.2c-0.6,0-1.1,0.2-1.5,0.7v-2.5H25.9z
		 M23.1,83.8v-5.6h2v-1.1h-5.3v1.1h2v5.6H23.1z"/>
	<path class="st5" d="M15.1,80.5c0.2-0.2,0.5-0.3,0.8-0.3c0.4,0,0.6,0.1,0.9,0.4c0.1,0.2,0.2,0.4,0.3,0.8h-2.3
		C14.7,81,14.9,80.7,15.1,80.5 M16.6,83.1c-0.2,0.1-0.4,0.2-0.7,0.2c-0.3,0-0.6-0.1-0.9-0.4c-0.2-0.2-0.4-0.6-0.4-1h3.1
		c0-0.1,0-0.1,0-0.2c0-0.7-0.2-1.2-0.5-1.6c-0.4-0.4-0.8-0.6-1.4-0.6c-0.6,0-1,0.2-1.4,0.6c-0.4,0.4-0.5,0.9-0.5,1.6
		c0,0.7,0.2,1.2,0.5,1.6c0.4,0.4,0.8,0.6,1.4,0.6c0.5,0,0.9-0.1,1.2-0.4c0.3-0.2,0.5-0.6,0.6-1L17,82.5C16.9,82.8,16.8,83,16.6,83.1
		 M10.5,80.6c0.2-0.3,0.5-0.4,0.8-0.4c0.3,0,0.6,0.1,0.8,0.4c0.2,0.3,0.3,0.7,0.3,1.2c0,0.5-0.1,0.9-0.3,1.1
		c-0.2,0.3-0.5,0.4-0.8,0.4c-0.3,0-0.6-0.1-0.8-0.4c-0.2-0.3-0.3-0.7-0.3-1.2C10.2,81.2,10.3,80.8,10.5,80.6 M13.1,83.8v-5.7h-0.7
		v2.1c-0.1-0.2-0.3-0.3-0.5-0.4c-0.2-0.1-0.4-0.2-0.7-0.2c-0.3,0-0.6,0.1-0.9,0.3C10,80,9.8,80.3,9.7,80.6s-0.2,0.7-0.2,1.1
		c0,0.4,0.1,0.8,0.2,1.1c0.2,0.3,0.4,0.6,0.6,0.8c0.3,0.2,0.6,0.3,0.9,0.3c0.5,0,0.9-0.2,1.2-0.6v0.5H13.1z M7.4,83.2
		c-0.1,0-0.2,0-0.2-0.1S7.1,83.1,7.1,83c0-0.1,0-0.2,0-0.4v-2.4h0.7v-0.5H7v-1.4l-0.7,0.4v1H5.8v0.5h0.5v2.4c0,0.4,0,0.7,0.1,0.8
		c0.1,0.1,0.2,0.2,0.3,0.3c0.1,0.1,0.3,0.1,0.6,0.1c0.2,0,0.3,0,0.5-0.1l-0.1-0.6C7.6,83.2,7.5,83.2,7.4,83.2 M2.6,80.5
		c0.2-0.2,0.5-0.3,0.8-0.3c0.4,0,0.6,0.1,0.9,0.4c0.1,0.2,0.2,0.4,0.3,0.8H2.3C2.3,81,2.4,80.7,2.6,80.5 M4.2,83.1
		c-0.2,0.1-0.4,0.2-0.7,0.2c-0.3,0-0.6-0.1-0.9-0.4c-0.2-0.2-0.4-0.6-0.4-1h3.1c0-0.1,0-0.1,0-0.2c0-0.7-0.2-1.2-0.5-1.6
		c-0.4-0.4-0.8-0.6-1.4-0.6c-0.6,0-1,0.2-1.4,0.6c-0.4,0.4-0.5,0.9-0.5,1.6c0,0.7,0.2,1.2,0.5,1.6c0.4,0.4,0.8,0.6,1.4,0.6
		c0.5,0,0.9-0.1,1.2-0.4c0.3-0.2,0.5-0.6,0.6-1l-0.7-0.1C4.5,82.8,4.3,83,4.2,83.1"/>
	<path class="st5" d="M98.4,58.6c0-0.4,0.1-0.7,0.3-0.9c0.2-0.2,0.4-0.3,0.7-0.3c0.3,0,0.5,0.1,0.7,0.3c0.2,0.2,0.3,0.5,0.3,0.9
		H98.4z M100,60.5c-0.1,0.1-0.3,0.2-0.5,0.2c-0.3,0-0.6-0.1-0.8-0.3c-0.2-0.2-0.3-0.5-0.3-0.9h3.4c0-1-0.2-1.8-0.6-2.3
		c-0.4-0.5-1-0.8-1.8-0.8c-0.7,0-1.2,0.2-1.7,0.7c-0.4,0.5-0.7,1.2-0.7,2c0,0.7,0.2,1.3,0.5,1.8c0.4,0.6,1.1,0.9,2,0.9
		c0.6,0,1-0.1,1.4-0.4c0.4-0.3,0.7-0.6,0.8-1.1l-1.4-0.2C100.3,60.2,100.1,60.4,100,60.5 M96,58.4c0-0.4,0-0.7-0.1-0.9
		s-0.1-0.4-0.3-0.6s-0.3-0.3-0.6-0.4s-0.5-0.2-0.8-0.2c-0.7,0-1.2,0.3-1.7,0.9v-0.8h-1.3v5.2h1.4v-2.3c0-0.6,0-1,0.1-1.2
		c0.1-0.2,0.2-0.4,0.4-0.5c0.2-0.1,0.4-0.2,0.6-0.2c0.2,0,0.3,0,0.5,0.1c0.1,0.1,0.2,0.2,0.3,0.4c0.1,0.2,0.1,0.5,0.1,1.1v2.6H96
		V58.4z M86.7,57.9c0.2-0.3,0.5-0.4,0.9-0.4s0.7,0.1,0.9,0.4c0.2,0.3,0.4,0.7,0.4,1.2c0,0.5-0.1,0.9-0.4,1.2
		c-0.2,0.3-0.5,0.4-0.9,0.4s-0.7-0.1-0.9-0.4c-0.2-0.3-0.4-0.7-0.4-1.2S86.4,58.1,86.7,57.9 M85.2,60.5c0.2,0.4,0.5,0.7,1,0.9
		c0.4,0.2,0.9,0.3,1.4,0.3c0.8,0,1.4-0.3,1.9-0.8c0.5-0.5,0.8-1.2,0.8-1.9c0-0.8-0.2-1.4-0.7-1.9c-0.5-0.5-1.1-0.8-1.9-0.8
		c-0.5,0-1,0.1-1.4,0.3s-0.7,0.5-0.9,1c-0.2,0.4-0.3,0.9-0.3,1.3C84.9,59.6,85,60.1,85.2,60.5 M79.1,54.5v7.1h1.4V59
		c0-0.4,0-0.8,0.1-1c0.1-0.2,0.2-0.4,0.4-0.5s0.4-0.2,0.6-0.2c0.2,0,0.4,0,0.5,0.1c0.1,0.1,0.2,0.2,0.3,0.3c0.1,0.1,0.1,0.5,0.1,1
		v2.7h1.4v-3c0-0.5,0-0.8-0.1-1c0-0.2-0.1-0.4-0.3-0.6c-0.1-0.2-0.3-0.3-0.6-0.4c-0.3-0.1-0.5-0.2-0.8-0.2c-0.6,0-1.1,0.3-1.6,0.8
		v-2.6H79.1z M74.7,57.8c0.2-0.3,0.5-0.4,0.8-0.4c0.3,0,0.6,0.1,0.8,0.4c0.2,0.3,0.3,0.7,0.3,1.2c0,0.6-0.1,1-0.3,1.2
		c-0.2,0.3-0.5,0.4-0.8,0.4c-0.3,0-0.6-0.1-0.8-0.4c-0.2-0.3-0.3-0.7-0.3-1.3C74.4,58.4,74.5,58.1,74.7,57.8 M73,63.6h1.4V61
		c0.3,0.3,0.5,0.5,0.7,0.6c0.2,0.1,0.5,0.2,0.8,0.2c0.6,0,1.1-0.2,1.5-0.7c0.4-0.5,0.6-1.1,0.6-2c0-0.8-0.2-1.5-0.6-2
		s-0.9-0.7-1.5-0.7c-0.3,0-0.7,0.1-0.9,0.2c-0.3,0.2-0.5,0.4-0.7,0.6v-0.8H73V63.6z M68.5,57.9c0.2-0.3,0.5-0.4,0.9-0.4
		c0.4,0,0.7,0.1,0.9,0.4c0.2,0.3,0.4,0.7,0.4,1.2c0,0.5-0.1,0.9-0.4,1.2c-0.2,0.3-0.5,0.4-0.9,0.4c-0.4,0-0.7-0.1-0.9-0.4
		c-0.2-0.3-0.4-0.7-0.4-1.2S68.2,58.1,68.5,57.9 M67,60.5c0.2,0.4,0.5,0.7,1,0.9c0.4,0.2,0.9,0.3,1.4,0.3c0.8,0,1.4-0.3,1.9-0.8
		c0.5-0.5,0.8-1.2,0.8-1.9c0-0.8-0.2-1.4-0.7-1.9c-0.5-0.5-1.1-0.8-1.9-0.8c-0.5,0-1,0.1-1.4,0.3c-0.4,0.2-0.7,0.5-0.9,1
		c-0.2,0.4-0.3,0.9-0.3,1.3C66.7,59.6,66.8,60.1,67,60.5 M65.2,56.7c-0.4-0.3-0.9-0.4-1.5-0.4c-0.8,0-1.4,0.2-1.8,0.7
		c-0.4,0.5-0.7,1.1-0.7,2c0,0.8,0.2,1.5,0.7,2c0.4,0.5,1,0.7,1.8,0.7c0.7,0,1.2-0.2,1.6-0.5c0.4-0.3,0.7-0.8,0.8-1.4l-1.3-0.2
		c-0.1,0.4-0.2,0.6-0.3,0.8c-0.2,0.1-0.4,0.2-0.6,0.2c-0.3,0-0.6-0.1-0.8-0.4c-0.2-0.3-0.3-0.7-0.3-1.3c0-0.5,0.1-0.9,0.3-1.2
		c0.2-0.2,0.5-0.4,0.8-0.4c0.3,0,0.5,0.1,0.6,0.2c0.2,0.1,0.3,0.3,0.3,0.6L66,58C65.8,57.4,65.5,57,65.2,56.7 M60.1,58.4
		c0-0.4,0-0.7-0.1-0.9c-0.1-0.2-0.1-0.4-0.3-0.6c-0.1-0.2-0.3-0.3-0.6-0.4s-0.5-0.2-0.8-0.2c-0.7,0-1.2,0.3-1.7,0.9v-0.8h-1.3v5.2
		h1.4v-2.3c0-0.6,0-1,0.1-1.2c0.1-0.2,0.2-0.4,0.4-0.5c0.2-0.1,0.4-0.2,0.6-0.2c0.2,0,0.3,0,0.5,0.1c0.1,0.1,0.2,0.2,0.3,0.4
		c0.1,0.2,0.1,0.5,0.1,1.1v2.6h1.4V58.4z M52.7,59.4c0,0.3,0,0.5-0.1,0.7c-0.1,0.2-0.2,0.3-0.3,0.5c-0.2,0.2-0.5,0.2-0.7,0.2
		c-0.2,0-0.4-0.1-0.5-0.2c-0.1-0.1-0.2-0.3-0.2-0.5c0-0.2,0.1-0.4,0.3-0.5c0.1-0.1,0.4-0.2,0.7-0.2c0.4-0.1,0.7-0.2,0.8-0.2V59.4z
		 M51.2,57.5c0.1-0.1,0.3-0.1,0.6-0.1c0.4,0,0.6,0.1,0.7,0.2c0.1,0.1,0.2,0.3,0.2,0.6v0.1c-0.2,0.1-0.7,0.2-1.3,0.3
		c-0.5,0.1-0.8,0.2-1.1,0.3c-0.2,0.1-0.4,0.3-0.6,0.5s-0.2,0.5-0.2,0.8c0,0.4,0.2,0.8,0.5,1.1c0.3,0.3,0.7,0.4,1.3,0.4
		c0.3,0,0.6-0.1,0.8-0.2c0.3-0.1,0.5-0.3,0.7-0.5c0,0,0,0.1,0,0.2c0.1,0.2,0.1,0.3,0.1,0.4h1.3c-0.1-0.2-0.2-0.5-0.2-0.7
		c0-0.2-0.1-0.5-0.1-1l0-1.6c0-0.6-0.1-1-0.2-1.2c-0.1-0.2-0.3-0.4-0.6-0.5c-0.3-0.1-0.8-0.2-1.4-0.2c-0.7,0-1.2,0.1-1.5,0.4
		c-0.3,0.2-0.6,0.6-0.7,1.1l1.2,0.2C51,57.8,51.1,57.6,51.2,57.5 M47.3,60c0-0.9,0-1.5,0.1-1.7c0.1-0.3,0.2-0.5,0.3-0.6
		c0.1-0.1,0.3-0.2,0.5-0.2c0.2,0,0.4,0.1,0.6,0.2l0.4-1.2c-0.3-0.2-0.6-0.3-0.9-0.3c-0.2,0-0.4,0.1-0.6,0.2
		c-0.2,0.1-0.4,0.3-0.6,0.7v-0.7H46v5.2h1.4V60z M41.4,61.6v-3h3v-1.2h-3v-1.7h3.4v-1.2H40v7.1H41.4z M33.9,55.8l1.3-1.4h-1.5
		L33,55.8H33.9z M32.7,58.6c0-0.4,0.1-0.7,0.3-0.9c0.2-0.2,0.4-0.3,0.7-0.3c0.3,0,0.5,0.1,0.7,0.3c0.2,0.2,0.3,0.5,0.3,0.9H32.7z
		 M34.3,60.5c-0.1,0.1-0.3,0.2-0.5,0.2c-0.3,0-0.6-0.1-0.8-0.3c-0.2-0.2-0.3-0.5-0.3-0.9h3.4c0-1-0.2-1.8-0.6-2.3
		c-0.4-0.5-1-0.8-1.8-0.8c-0.7,0-1.2,0.2-1.7,0.7c-0.4,0.5-0.7,1.2-0.7,2c0,0.7,0.2,1.3,0.5,1.8c0.4,0.6,1.1,0.9,2,0.9
		c0.6,0,1-0.1,1.4-0.4c0.4-0.3,0.7-0.6,0.8-1.1L34.7,60C34.6,60.2,34.5,60.4,34.3,60.5 M29.8,56.5v-1.8l-1.4,0.8v1h-0.6v1.1h0.6v2.2
		c0,0.5,0,0.8,0,1c0,0.2,0.1,0.4,0.2,0.5c0.1,0.1,0.2,0.2,0.4,0.3c0.2,0.1,0.4,0.1,0.7,0.1c0.4,0,0.8-0.1,1.1-0.2l-0.1-1.1
		c-0.2,0.1-0.4,0.1-0.5,0.1c-0.1,0-0.2,0-0.2-0.1c-0.1,0-0.1-0.1-0.1-0.2c0-0.1,0-0.3,0-0.7v-2.1h0.9v-1.1H29.8z M25,55.8l1.3-1.4
		h-1.5l-0.7,1.4H25z M23.9,58.6c0-0.4,0.1-0.7,0.3-0.9c0.2-0.2,0.4-0.3,0.7-0.3c0.3,0,0.5,0.1,0.7,0.3c0.2,0.2,0.3,0.5,0.3,0.9H23.9
		z M25.5,60.5c-0.1,0.1-0.3,0.2-0.5,0.2c-0.3,0-0.6-0.1-0.8-0.3c-0.2-0.2-0.3-0.5-0.3-0.9h3.4c0-1-0.2-1.8-0.6-2.3
		c-0.4-0.5-1-0.8-1.8-0.8c-0.7,0-1.2,0.2-1.7,0.7c-0.4,0.5-0.7,1.2-0.7,2c0,0.7,0.2,1.3,0.5,1.8c0.4,0.6,1.1,0.9,2,0.9
		c0.6,0,1-0.1,1.4-0.4c0.4-0.3,0.7-0.6,0.8-1.1L25.8,60C25.8,60.2,25.6,60.4,25.5,60.5 M21.5,56.5h-1.4v5.2h1.4V56.5z M21.5,54.5
		h-1.4v1.3h1.4V54.5z M18.3,56.7c-0.4-0.3-0.9-0.4-1.5-0.4c-0.8,0-1.4,0.2-1.8,0.7c-0.4,0.5-0.7,1.1-0.7,2c0,0.8,0.2,1.5,0.7,2
		c0.4,0.5,1,0.7,1.8,0.7c0.7,0,1.2-0.2,1.6-0.5c0.4-0.3,0.7-0.8,0.8-1.4l-1.3-0.2c-0.1,0.4-0.2,0.6-0.3,0.8
		c-0.2,0.1-0.4,0.2-0.6,0.2c-0.3,0-0.6-0.1-0.8-0.4c-0.2-0.3-0.3-0.7-0.3-1.3c0-0.5,0.1-0.9,0.3-1.2c0.2-0.2,0.5-0.4,0.8-0.4
		c0.3,0,0.5,0.1,0.6,0.2s0.3,0.3,0.3,0.6l1.3-0.2C18.9,57.4,18.6,57,18.3,56.7 M9.9,57.9c0.2-0.3,0.5-0.4,0.9-0.4
		c0.4,0,0.7,0.1,0.9,0.4c0.2,0.3,0.4,0.7,0.4,1.2c0,0.5-0.1,0.9-0.4,1.2c-0.2,0.3-0.5,0.4-0.9,0.4c-0.4,0-0.7-0.1-0.9-0.4
		c-0.2-0.3-0.4-0.7-0.4-1.2S9.7,58.1,9.9,57.9 M8.5,60.5c0.2,0.4,0.5,0.7,1,0.9c0.4,0.2,0.9,0.3,1.3,0.3c0.8,0,1.4-0.3,1.9-0.8
		c0.5-0.5,0.8-1.2,0.8-1.9c0-0.8-0.2-1.4-0.7-1.9c-0.5-0.5-1.1-0.8-1.9-0.8c-0.5,0-1,0.1-1.4,0.3c-0.4,0.2-0.7,0.5-0.9,1
		c-0.2,0.4-0.3,0.9-0.3,1.3C8.2,59.6,8.3,60.1,8.5,60.5 M2.4,61.1c0.5,0.4,1.2,0.6,2.1,0.6c0.6,0,1.1-0.1,1.5-0.3
		c0.4-0.2,0.7-0.4,1-0.8c0.2-0.4,0.3-0.7,0.3-1.1c0-0.4-0.1-0.8-0.3-1.1c-0.2-0.3-0.5-0.5-0.8-0.7c-0.3-0.2-0.9-0.3-1.5-0.5
		C4,57,3.5,56.8,3.4,56.7c-0.1-0.1-0.2-0.3-0.2-0.4c0-0.2,0.1-0.3,0.2-0.4c0.2-0.2,0.6-0.3,1-0.3c0.4,0,0.7,0.1,0.9,0.2
		c0.2,0.2,0.3,0.4,0.4,0.8l1.4-0.1c0-0.7-0.3-1.2-0.7-1.6c-0.5-0.4-1.1-0.6-2-0.6c-0.5,0-1,0.1-1.4,0.2c-0.4,0.2-0.7,0.4-0.9,0.7
		c-0.2,0.3-0.3,0.7-0.3,1c0,0.6,0.2,1,0.7,1.4c0.3,0.3,0.9,0.5,1.6,0.7c0.6,0.1,1,0.3,1.1,0.3c0.2,0.1,0.4,0.2,0.5,0.3
		c0.1,0.1,0.1,0.3,0.1,0.4c0,0.3-0.1,0.5-0.4,0.7c-0.2,0.2-0.6,0.3-1,0.3c-0.4,0-0.8-0.1-1-0.3c-0.3-0.2-0.4-0.6-0.5-1l-1.4,0.1
		C1.6,60.1,1.9,60.7,2.4,61.1"/>
	<path class="st5" d="M101.7,72.8v-1.1h-3.5v-1.8h3.2v-1.1h-3.2v-1.5h3.4v-1.1h-4.7v6.6H101.7z M96,72.8v-1.1h-3.2v-5.4h-1.3v6.6H96
		z M90.6,72.8v-1.1h-3.2v-5.4h-1.3v6.6H90.6z M85,72.8v-1.1h-3.5v-1.8h3.2v-1.1h-3.2v-1.5h3.4v-1.1h-4.7v6.6H85z M74.8,67.8
		c0.3-0.4,0.7-0.6,1.3-0.6c0.5,0,0.9,0.2,1.3,0.6c0.3,0.4,0.5,0.9,0.5,1.7c0,0.8-0.2,1.3-0.5,1.7c-0.3,0.4-0.7,0.6-1.3,0.6
		c-0.5,0-0.9-0.2-1.3-0.6c-0.3-0.4-0.5-1-0.5-1.7C74.4,68.7,74.5,68.1,74.8,67.8 M73.9,72c0.6,0.6,1.3,0.9,2.2,0.9
		c0.9,0,1.7-0.3,2.2-0.9c0.6-0.6,0.8-1.4,0.8-2.5c0-1.1-0.3-1.9-0.8-2.5c-0.6-0.6-1.3-0.9-2.2-0.9c-0.5,0-1,0.1-1.4,0.3
		c-0.3,0.1-0.6,0.3-0.8,0.6c-0.2,0.3-0.4,0.6-0.6,0.9c-0.2,0.5-0.3,1-0.3,1.7C73.1,70.6,73.3,71.4,73.9,72 M67.1,72.8v-5.2l1.3,5.2
		h1.2l1.3-5.2v5.2H72v-6.6h-1.9L69,70.7l-1.1-4.5h-1.9v6.6H67.1z M62.7,72.8v-1.1h-3.5v-1.8h3.2v-1.1h-3.2v-1.5h3.4v-1.1h-4.7v6.6
		H62.7z M53.3,67.3c0.5,0,0.9,0,1,0.1c0.2,0.1,0.4,0.2,0.6,0.3c0.2,0.2,0.3,0.4,0.4,0.6c0.1,0.3,0.1,0.7,0.1,1.2
		c0,0.5,0,0.9-0.1,1.2c-0.1,0.3-0.2,0.5-0.3,0.6c-0.1,0.1-0.3,0.2-0.5,0.3c-0.2,0-0.4,0.1-0.8,0.1h-1v-4.4H53.3z M51.5,72.8h2.4
		c0.5,0,0.8,0,1.1-0.1c0.4-0.1,0.7-0.3,0.9-0.5c0.3-0.3,0.5-0.7,0.7-1.2c0.1-0.4,0.2-0.9,0.2-1.4c0-0.6-0.1-1.1-0.2-1.6
		c-0.1-0.4-0.3-0.8-0.6-1.1s-0.6-0.5-1-0.6c-0.3-0.1-0.7-0.1-1.2-0.1h-2.3V72.8z M48.2,72.8v-1.1h-3.5v-1.8h3.2v-1.1h-3.2v-1.5h3.4
		v-1.1h-4.7v6.6H48.2z M39.3,72.8V70h2.6v-1.1h-2.6v-1.6h3.1v-1.1H38v6.6H39.3z M33.9,72.8V70h2.6v-1.1h-2.6v-1.6H37v-1.1h-4.3v6.6
		H33.9z M31.5,72.8v-1.1H28v-1.8h3.2v-1.1H28v-1.5h3.4v-1.1h-4.7v6.6H31.5z M21.6,67.3h1c0.5,0,0.8,0,0.9,0c0.2,0,0.4,0.1,0.5,0.3
		c0.1,0.1,0.2,0.3,0.2,0.5c0,0.2,0,0.4-0.1,0.5c-0.1,0.1-0.2,0.2-0.4,0.3c-0.2,0.1-0.5,0.1-1.1,0.1h-0.9V67.3z M21.6,72.8V70h0.3
		c0.3,0,0.5,0,0.6,0.1c0.1,0.1,0.3,0.1,0.4,0.3c0.1,0.1,0.3,0.5,0.7,1l0.9,1.4H26l-0.8-1.3c-0.3-0.5-0.5-0.9-0.7-1.1
		c-0.2-0.2-0.4-0.4-0.7-0.6c0.6-0.1,1-0.3,1.3-0.6c0.3-0.3,0.4-0.7,0.4-1.2c0-0.4-0.1-0.7-0.3-1c-0.2-0.3-0.4-0.5-0.7-0.6
		c-0.3-0.1-0.8-0.2-1.5-0.2h-2.7v6.6H21.6z M17.9,70.4v0.8c-0.2,0.2-0.4,0.3-0.7,0.4c-0.3,0.1-0.5,0.2-0.8,0.2c-0.5,0-1-0.2-1.3-0.6
		s-0.5-1-0.5-1.8c0-0.7,0.2-1.3,0.5-1.6c0.3-0.4,0.8-0.6,1.3-0.6c0.4,0,0.7,0.1,0.9,0.3c0.2,0.2,0.4,0.4,0.5,0.8l1.3-0.2
		c-0.1-0.6-0.4-1.1-0.9-1.4c-0.4-0.3-1.1-0.5-1.8-0.5c-0.6,0-1.1,0.1-1.5,0.3c-0.5,0.3-0.9,0.7-1.2,1.2c-0.3,0.5-0.4,1.1-0.4,1.8
		c0,0.6,0.1,1.2,0.4,1.8c0.2,0.5,0.6,1,1.1,1.2c0.5,0.3,1.1,0.4,1.7,0.4c0.5,0,1-0.1,1.5-0.3c0.5-0.2,0.9-0.4,1.2-0.7v-2.6h-2.8v1.1
		H17.9z"/>
	<path class="st5" d="M7.1,68.9c0.2-0.2,0.5-0.3,0.8-0.3c0.4,0,0.6,0.1,0.9,0.4c0.1,0.2,0.2,0.4,0.3,0.8H6.8
		C6.8,69.4,6.9,69.1,7.1,68.9 M8.6,71.6c-0.2,0.1-0.4,0.2-0.7,0.2c-0.3,0-0.6-0.1-0.9-0.4c-0.2-0.2-0.4-0.6-0.4-1h3.1
		c0-0.1,0-0.1,0-0.2c0-0.7-0.2-1.2-0.5-1.6C8.9,68.2,8.5,68,7.9,68c-0.6,0-1,0.2-1.4,0.6C6.2,69,6,69.5,6,70.2
		c0,0.7,0.2,1.2,0.5,1.6c0.4,0.4,0.8,0.6,1.4,0.6c0.5,0,0.9-0.1,1.2-0.4c0.3-0.2,0.5-0.6,0.6-1l-0.7-0.1C9,71.2,8.8,71.4,8.6,71.6
		 M2.6,69c0.2-0.3,0.5-0.4,0.8-0.4c0.3,0,0.6,0.1,0.8,0.4c0.2,0.3,0.3,0.7,0.3,1.2c0,0.5-0.1,0.9-0.3,1.1c-0.2,0.3-0.5,0.4-0.8,0.4
		c-0.3,0-0.6-0.1-0.8-0.4c-0.2-0.3-0.3-0.7-0.3-1.2C2.2,69.6,2.3,69.2,2.6,69 M5.1,72.2v-5.7H4.4v2.1c-0.1-0.2-0.3-0.3-0.5-0.4
		C3.7,68.1,3.5,68,3.3,68c-0.3,0-0.6,0.1-0.9,0.3c-0.3,0.2-0.5,0.4-0.6,0.8c-0.1,0.3-0.2,0.7-0.2,1.1c0,0.4,0.1,0.8,0.2,1.1
		c0.2,0.3,0.4,0.6,0.6,0.8c0.3,0.2,0.6,0.3,0.9,0.3c0.5,0,0.9-0.2,1.2-0.6v0.5H5.1z"/>
	<path class="st8" d="M143.4,79.6c1.8,0,3.6-0.4,5.2-1.2V83c-1.7,0.5-3.4,0.8-5.2,0.8c-4.3,0-7.9-1.4-10.9-4.1
		c-3-2.8-4.5-6.1-4.5-10c0-3.9,1.5-7.2,4.5-10s6.7-4.1,10.9-4.1c1.8,0,3.5,0.3,5.2,0.8V61c-1.6-0.8-3.3-1.2-5.2-1.2
		c-3,0-5.6,1-7.7,2.9c-2.1,1.9-3.2,4.3-3.2,7c0,2.7,1.1,5.1,3.2,7C137.9,78.6,140.4,79.6,143.4,79.6 M128.1,55.9v4.2h-8.7v23.4h-4.6
		V60.1H106v-4.2H128.1z"/>
</g>
</svg>
