<?xml version="1.0" encoding="utf-8"?>
<!-- Generator: Adobe Illustrator 20.0.0, SVG Export Plug-In . SVG Version: 6.00 Build 0)  -->
<svg version="1.1" id="Calque_2" xmlns="http://www.w3.org/2000/svg" xmlns:xlink="http://www.w3.org/1999/xlink" x="0px" y="0px"
	 width="281.8px" height="265.9px" viewBox="0 0 281.8 265.9" style="enable-background:new 0 0 281.8 265.9;" xml:space="preserve"
	>
<style type="text/css">
	.st0{fill:none;stroke:#0781A0;stroke-width:1.4847;stroke-miterlimit:10;}
	.st1{fill:none;stroke:#0781A0;stroke-width:1.5;stroke-miterlimit:10;}
	.st2{fill:none;stroke:#EE9638;stroke-width:1.5;stroke-miterlimit:10;}
	.st3{fill:#95C9D4;}
	.st4{fill:#0781A0;}
	.st5{fill:#EE9638;}
	.st6{fill:#FFFFFF;}
	.st7{fill:#FFFFFF;fill-opacity:0.67;}
</style>
<path class="st0" d="M194.9,69.4c8.1,47.6-15.5,64.8-45.5,64.5c-30-0.3-52.3-2-66.1-14.7C70,107.1,63,78,75.8,61s31.4-35.5,76-39
	C185.1,19.5,192.5,54.9,194.9,69.4z"/>
<path class="st1" d="M118.5,241.1c-8.3-17.8,0.9-27.8,14.5-31.6s24-6,31.5-2.8c7.2,3.1,13.2,13.7,9,22.1
	c-4.2,8.4-10.9,18.2-30.8,25.4C127.7,259.7,121,246.6,118.5,241.1z"/>
<g>
	<path class="st2" d="M278.6,191.8c1.2,19.4-9,25.3-21,23.9c-12-1.4-20.8-3.1-25.8-8.8c-4.8-5.4-6.3-17.4-0.5-23.7
		s14.1-12.9,32.1-12.3C276.8,171.4,278.2,185.9,278.6,191.8z"/>
	<path class="st3" d="M269,194c0.7,10.7-5,13.9-11.7,13.2c-6.7-0.8-11.6-1.7-14.4-4.8c-2.7-3-3.5-9.6-0.3-13
		c3.3-3.4,7.9-7.1,17.9-6.8C268,182.7,268.8,190.7,269,194z"/>
	<path class="st4" d="M266.4,193.7c0.5,8.7-3.8,11.3-8.9,10.7c-5.1-0.6-8.8-1.4-10.9-3.9c-2-2.4-2.7-7.8-0.2-10.6
		c2.5-2.8,5.9-5.8,13.6-5.5C265.6,184.5,266.2,191,266.4,193.7z"/>
</g>
<g>
	<path class="st5" d="M187.9,155.4c11.3,54.5-14.9,75.2-48.9,76c-34.1,0.8-59.6-0.3-75.8-14.4c-15.6-13.5-24.9-46.7-11-66.7
		s34.1-42.1,84.7-47.8C174.6,98.2,184.4,138.8,187.9,155.4z"/>
	<path class="st3" d="M161.1,161.9c6.4,30.9-8.6,42.7-28.2,43.2s-34.2-0.1-43.5-8c-8.9-7.6-14.2-26.4-6.2-37.8s19.6-23.9,48.7-27.2
		C153.5,129.5,159.2,152.5,161.1,161.9z"/>
	<path class="st6" d="M147.2,167.9c3.5,16.6-4.9,23-15.6,23.3s-18.8,0-23.9-4.2c-4.9-4.1-7.8-14.2-3.3-20.3
		c4.4-6.1,10.9-12.9,26.9-14.8C143.1,150.5,146.1,162.8,147.2,167.9z"/>
</g>
<path class="st5" d="M213.3,84.3c12.3,21,4.1,33.4-10.2,38.6s-25.2,8.4-34,4.9c-8.4-3.4-16.9-15.8-13.8-26.1s8.6-22.4,29.2-32
	C199.8,62.5,209.5,77.9,213.3,84.3z"/>
<path class="st1" d="M242.6,218.7c6.6,31.5-8.9,43.6-29,44.1c-20.1,0.5-35.1-0.1-44.7-8.2c-9.2-7.8-14.6-27-6.3-38.6
	s20.2-24.5,50.1-27.9C234.9,185.7,240.6,209.1,242.6,218.7z"/>
<path class="st3" d="M226.8,223.3c3.7,18-4.9,24.8-16.2,25.1c-11.3,0.3-19.7-0.1-25.1-4.7c-5.2-4.4-8.2-15.4-3.6-22
	c4.6-6.6,11.3-13.9,28-15.8C222.4,204.5,225.7,217.8,226.8,223.3z"/>
<path class="st4" d="M223.3,224.2c2.9,13.8-4.1,19.2-13.2,19.4c-9.1,0.3-15.9,0.1-20.2-3.5c-4.1-3.4-6.5-11.8-2.8-17
	s9.2-10.8,22.7-12.4C219.9,209.7,222.5,220,223.3,224.2z"/>
<path class="st6" d="M202.9,90.1c7,12,2.4,19.1-5.7,22s-14.3,4.7-19.3,2.7c-4.8-1.9-9.7-9.1-7.9-15s4.8-12.8,16.5-18.2
	C195.2,77.6,200.8,86.4,202.9,90.1z"/>
<path class="st4" d="M122.9,231.1c1.7,22.1-10.4,29-24.7,27.6c-14.3-1.4-25-3.1-31-9.4c-5.8-6.1-7.9-19.7-0.9-27
	c6.9-7.2,16.6-15,38.2-14.7C120.4,207.8,122.3,224.4,122.9,231.1z"/>
<path class="st6" d="M111.4,232.8c1,13-5.8,17.1-13.8,16.2s-14-1.8-17.4-5.6c-3.3-3.6-4.4-11.6-0.6-15.9c3.9-4.3,9.3-8.8,21.4-8.6
	C110,219.1,111.1,228.8,111.4,232.8z"/>
<path class="st5" d="M104.9,234.4c0.5,6.8-3,8.9-7.2,8.5c-4.2-0.4-7.3-1-9.1-2.9c-1.7-1.9-2.3-6-0.3-8.3c2-2.2,4.8-4.6,11.1-4.5
	C104.2,227.2,104.7,232.3,104.9,234.4z"/>
<g>
	<path class="st6" d="M101.9,81.6c14.1,34.8-2.2,52.2-26.3,57.4s-42.3,7.9-55.4,0.7C7.6,132.8-2.7,111.9,4.9,96.6
		s19.5-32.8,54.8-43.4C86.1,45.2,97.6,71,101.9,81.6z"/>
	<path class="st5" d="M81.6,90.4c8.1,20-1.3,30-15.1,32.9c-13.8,3-24.3,4.5-31.8,0.4c-7.2-3.9-13.1-15.9-8.7-24.7
		s11.2-18.8,31.4-24.9C72.5,69.5,79.1,84.3,81.6,90.4z"/>
</g>
<path class="st2" d="M152.3,77.1c6.5,8.3,3.8,13.9-1.8,16.8c-5.6,2.9-9.9,4.8-13.8,3.7c-3.7-1-8.1-5.9-7.4-10.4
	c0.6-4.5,2.1-9.9,10.1-14.9C145.3,68.5,150.3,74.6,152.3,77.1z"/>
<path class="st5" d="M147.1,81.6c2.9,3.7,1.7,6.2-0.8,7.5c-2.5,1.3-4.4,2.1-6.1,1.6c-1.7-0.5-3.6-2.6-3.3-4.6c0.3-2,0.9-4.4,4.5-6.6
	C144,77.8,146.3,80.5,147.1,81.6z"/>
<path class="st1" d="M211.3,22.9c1.7,18.8-8.1,24.8-19.7,23.7c-11.6-1.1-20.2-2.5-25.2-7.9c-4.8-5.2-6.6-16.8-1-23
	C170.8,9.5,178.6,2.9,196,3C209,3,210.8,17.1,211.3,22.9z"/>
<path class="st3" d="M73.4,163.4c0,26.2-13.9,33.3-29.6,30.4C28,190.9,16.4,188,10.3,180c-5.9-7.7-7-23.9,1.3-31.9
	s19.6-16.2,43.4-14C72.7,135.7,73.4,155.4,73.4,163.4z"/>
<path class="st6" d="M59.6,164.6c0.1,13.5-8,17.1-17.1,15.6s-15.8-3-19.4-7.2c-3.4-4-4.1-12.3,0.7-16.4c4.8-4.1,11.4-8.3,25.1-7.2
	C59.2,150.4,59.6,160.5,59.6,164.6z"/>
<g>
	<path class="st4" d="M173.6,159.4c-1-37,18.7-47.5,41.2-44s39.1,7.2,48.2,18.3c8.7,10.7,10.8,33.5-0.7,45s-27.4,23.6-61.3,21.3
		C175.6,198.4,173.9,170.7,173.6,159.4z"/>
	<path class="st3" d="M192.7,157.9c-0.6-20.7,10.8-26.5,23.8-24.6c13,2,22.7,4,27.9,10.2c5,6,6.3,18.7-0.4,25.1
		c-6.7,6.4-15.9,13.2-35.5,11.9C193.9,179.6,192.9,164.2,192.7,157.9z"/>
	<path class="st6" d="M196.2,157.7c-0.5-17.8,8.8-22.8,19.4-21.1c10.6,1.7,18.5,3.5,22.8,8.8c4.1,5.1,5.1,16.1-0.3,21.6
		s-12.9,11.3-29,10.3C197.2,176.5,196.4,163.1,196.2,157.7z"/>
</g>
<rect class="st7" width="281.8" height="265.9"/>
</svg>
