<?xml version="1.0" encoding="utf-8"?>
<!-- Generator: Adobe Illustrator 20.0.0, SVG Export Plug-In . SVG Version: 6.00 Build 0)  -->
<svg version="1.1" id="Calque_2" xmlns="http://www.w3.org/2000/svg" xmlns:xlink="http://www.w3.org/1999/xlink" x="0px" y="0px"
	 width="111.2px" height="105px" viewBox="0 0 111.2 105" style="enable-background:new 0 0 111.2 105;" xml:space="preserve">
<style type="text/css">
	.st0{fill:none;stroke:#0781A0;stroke-width:0.5847;stroke-miterlimit:10;}
	.st1{fill:none;stroke:#0781A0;stroke-width:0.5907;stroke-miterlimit:10;}
	.st2{fill:none;stroke:#EE9638;stroke-width:0.5907;stroke-miterlimit:10;}
	.st3{fill:#95C9D4;}
	.st4{fill:#0781A0;}
	.st5{fill:#EE9638;}
	.st6{fill:#FFFFFF;}
	.st7{fill:#FFFFFF;fill-opacity:0.67;}
</style>
<path class="st0" d="M76.9,27.5C80.1,46.2,70.8,53,59,52.9c-11.8-0.1-20.6-0.8-26-5.8c-5.2-4.8-8-16.2-2.9-22.9s12.3-14,29.9-15.4
	C73,7.8,75.9,21.8,76.9,27.5z"/>
<path class="st1" d="M46.8,95.1c-3.3-7,0.3-10.9,5.7-12.4s9.5-2.4,12.4-1.1c2.8,1.2,5.2,5.4,3.5,8.7c-1.7,3.3-4.3,7.2-12.1,10
	C50.4,102.4,47.8,97.2,46.8,95.1z"/>
<g>
	<path class="st2" d="M109.9,75.7c0.5,7.6-3.6,10-8.3,9.4c-4.7-0.6-8.2-1.2-10.2-3.4c-1.9-2.1-2.5-6.9-0.2-9.3
		c2.3-2.5,5.5-5.1,12.6-4.9C109.2,67.6,109.7,73.3,109.9,75.7z"/>
	<path class="st3" d="M106.1,76.5c0.3,4.2-2,5.5-4.6,5.2c-2.6-0.3-4.6-0.7-5.7-1.9c-1.1-1.2-1.4-3.8-0.1-5.1s3.1-2.8,7.1-2.7
		C105.7,72.1,106,75.2,106.1,76.5z"/>
	<path class="st4" d="M105,76.4c0.2,3.4-1.5,4.5-3.5,4.2c-2-0.3-3.5-0.5-4.3-1.6c-0.8-1-1.1-3.1-0.1-4.2s2.3-2.3,5.3-2.2
		C104.7,72.8,105,75.4,105,76.4z"/>
</g>
<g>
	<path class="st5" d="M74.1,61.3c4.5,21.4-5.9,29.6-19.3,29.9S31.4,91.1,25,85.6c-6.1-5.3-9.8-18.4-4.3-26.3S34.1,42.7,54,40.5
		C68.9,38.8,72.8,54.8,74.1,61.3z"/>
	<path class="st3" d="M63.6,63.9c2.5,12.2-3.4,16.8-11.1,17c-7.7,0.2-13.5,0-17.1-3.2c-3.5-3-5.6-10.4-2.5-14.9s7.7-9.4,19.2-10.7
		C60.6,51.1,62.8,60.2,63.6,63.9z"/>
	<path class="st6" d="M58.1,66.3c1.4,6.5-1.9,9-6.2,9.2s-7.4,0-9.4-1.7c-1.9-1.6-3.1-5.6-1.3-8c1.7-2.4,4.3-5.1,10.6-5.8
		C56.5,59.4,57.7,64.3,58.1,66.3z"/>
</g>
<path class="st5" d="M84.1,33.3c4.8,8.3,1.6,13.1-4,15.2c-5.6,2.1-9.9,3.3-13.4,1.9c-3.3-1.3-6.7-6.2-5.4-10.3
	c1.2-4.1,3.4-8.8,11.5-12.6C78.8,24.7,82.7,30.8,84.1,33.3z"/>
<path class="st1" d="M95.7,86.3c2.6,12.4-3.5,17.2-11.4,17.4s-13.8,0-17.6-3.2c-3.6-3.1-5.7-10.6-2.5-15.2c3.2-4.6,8-9.6,19.7-11
	C92.7,73.3,94.9,82.5,95.7,86.3z"/>
<path class="st3" d="M89.5,88.1c1.5,7.1-1.9,9.8-6.4,9.9c-4.4,0.1-7.8,0-9.9-1.9c-2-1.7-3.2-6.1-1.4-8.7c1.8-2.6,4.4-5.5,11-6.2
	C87.7,80.7,89,85.9,89.5,88.1z"/>
<path class="st4" d="M88.1,88.4c1.1,5.4-1.6,7.5-5.2,7.7c-3.6,0.1-6.3,0-8-1.4c-1.6-1.3-2.6-4.7-1.1-6.7c1.5-2,3.6-4.3,8.9-4.9
	C86.8,82.7,87.8,86.8,88.1,88.4z"/>
<path class="st6" d="M80.1,35.6c2.8,4.7,1,7.5-2.2,8.7s-5.6,1.9-7.6,1.1c-1.9-0.8-3.8-3.6-3.1-5.9c0.7-2.3,1.9-5,6.5-7.2
	C77,30.7,79.2,34.2,80.1,35.6z"/>
<path class="st4" d="M48.5,91.1c0.7,8.7-4.1,11.4-9.7,10.9s-9.8-1.2-12.2-3.7c-2.3-2.4-3.1-7.8-0.4-10.6c2.7-2.9,6.5-5.9,15-5.8
	C47.6,82,48.3,88.5,48.5,91.1z"/>
<path class="st6" d="M44,91.8c0.4,5.1-2.3,6.7-5.4,6.4c-3.2-0.3-5.5-0.7-6.9-2.2c-1.3-1.4-1.7-4.6-0.2-6.2c1.5-1.7,3.7-3.5,8.4-3.4
	C43.5,86.4,43.9,90.2,44,91.8z"/>
<path class="st5" d="M41.5,92.4c0.2,2.7-1.2,3.5-2.8,3.3c-1.6-0.2-2.9-0.4-3.6-1.1c-0.7-0.7-0.9-2.4-0.1-3.3
	c0.8-0.9,1.9-1.8,4.4-1.8C41.2,89.6,41.4,91.6,41.5,92.4z"/>
<g>
	<path class="st6" d="M40.3,32.3c5.5,13.7-0.9,20.6-10.4,22.6S13.2,58,8.1,55.1c-5-2.7-9-10.9-6-17s7.7-12.9,21.6-17.1
		C34,17.9,38.6,28.1,40.3,32.3z"/>
	<path class="st5" d="M32.3,35.7c3.2,7.9-0.5,11.8-5.9,13s-9.6,1.8-12.5,0.2c-2.8-1.6-5.2-6.3-3.4-9.7s4.4-7.4,12.4-9.8
		C28.7,27.5,31.3,33.3,32.3,35.7z"/>
</g>
<path class="st2" d="M60.1,30.5c2.5,3.3,1.5,5.5-0.7,6.6S55.5,39,54,38.6c-1.5-0.4-3.2-2.3-2.9-4.1c0.2-1.8,0.8-3.9,4-5.9
	C57.4,27.1,59.3,29.5,60.1,30.5z"/>
<path class="st5" d="M58.1,32.3c1.1,1.4,0.7,2.4-0.3,2.9c-1,0.5-1.7,0.8-2.4,0.6c-0.7-0.2-1.4-1-1.3-1.8c0.1-0.8,0.4-1.7,1.8-2.6
	C56.9,30.8,57.7,31.8,58.1,32.3z"/>
<path class="st1" d="M83.3,9.1c0.6,7.4-3.2,9.8-7.8,9.3c-4.6-0.4-8-1-9.9-3.1c-1.9-2-2.6-6.6-0.4-9s5.2-5.1,12.1-5
	C82.5,1.3,83.1,6.9,83.3,9.1z"/>
<path class="st3" d="M29,64.5c0,10.3-5.5,13.1-11.7,12S6.6,74.2,4.2,71c-2.3-3-2.8-9.4,0.5-12.5s7.7-6.4,17.1-5.5
	C28.8,53.6,29,61.3,29,64.5z"/>
<path class="st6" d="M23.6,65c0,5.3-3.2,6.8-6.7,6.2c-3.6-0.6-6.2-1.2-7.6-2.8c-1.3-1.6-1.6-4.9,0.3-6.5s4.5-3.3,9.9-2.8
	C23.5,59.4,23.6,63.3,23.6,65z"/>
<g>
	<path class="st4" d="M68.5,62.9c-0.4-14.6,7.4-18.7,16.2-17.3s15.4,2.8,19,7.2c3.4,4.2,4.3,13.2-0.3,17.7
		c-4.5,4.5-10.8,9.3-24.2,8.4C69.3,78.3,68.6,67.4,68.5,62.9z"/>
	<path class="st3" d="M76,62.3c-0.2-8.1,4.3-10.4,9.4-9.7c5.1,0.8,8.9,1.6,11,4c2,2.3,2.5,7.4-0.2,9.9c-2.6,2.5-6.3,5.2-14,4.7
		C76.5,70.9,76.1,64.8,76,62.3z"/>
	<path class="st6" d="M77.4,62.2c-0.2-7,3.5-9,7.7-8.3c4.2,0.7,7.3,1.4,9,3.5c1.6,2,2,6.3-0.1,8.5c-2.1,2.2-5.1,4.5-11.4,4
		C77.8,69.6,77.5,64.4,77.4,62.2z"/>
</g>
<rect class="st7" width="111.2" height="105"/>
</svg>
